<svg id="Laag_1" data-name="Laag 1" xmlns="http://www.w3.org/2000/svg" viewBox="0 0 1187.89 224.43"><defs><style>.cls-1{fill:#21458c;}.cls-2{fill:#ff7500;}</style></defs><title>Tekengebied 1</title><path class="cls-1" d="M692.21,96.46H663.68v28.68s.14,5.36-5.92,5.38l-7.69,0-14.19,0V31.68s.42-6.53,6.31-6.55l5.49,0h54l.07,19.14S701.68,49,695.38,49H663.59V72.36h33.75V91.77s.26,4.57-5.13,4.59"/><path class="cls-1" d="M1035.77,105.45c16.72-.06,24.66-14.1,24.61-28.11s-8.53-27.69-24.8-27.63l-12.35,0v55.74Zm0-80.34C1070.14,25,1087.71,51,1087.94,77c.4,26.51-16.83,53.23-51.78,53.35l-40.56.14V30s0-4.9,5.51-4.92h34.68Z"/><path class="cls-1" d="M1121.05,100.65c7.11,0,7.76,7.59,16,9.79a28.73,28.73,0,0,0,7.44,1c7.84,0,16.11-3.67,16.08-10,0-10.09-11.78-10.5-19.46-10.93-19.29-1.13-38.6-8.75-38.67-30.74-.08-22.9,19.3-34.57,40.85-34.64,20.33-.07,41,11.52,40.64,34.42h-18a10.7,10.7,0,0,1-8.63-4,17.22,17.22,0,0,0-13.42-6.21c-6.18,0-14.31,1.71-14.28,9.69,0,7.08,6.05,8.87,16.15,9.74,22.45,2,42,7.08,42.14,32.69.08,22.14-21.42,33.66-43,33.74-22.3.08-43.73-10.91-43.36-34.57h19.48Z"/><path class="cls-1" d="M108.63,96.77V36.33s-.8-10.21,9.62-10.25h18.4v70c0,8.73,7.73,12.48,15.56,12.45,7.38,0,15.21-3.82,15.18-12.56V36.1s-1-10.18,8.57-10.22h18.7V96.47c.08,23.65-20.37,36.07-42.51,36.15C129.85,132.7,108.71,120.42,108.63,96.77Z"/><path class="cls-1" d="M249.68,106.28h29.24c9.23,0,8.89,6.28,8.89,6.28V131l-65.61.22V25.72l27.48-.09Z"/><path class="cls-1" d="M356.08,79.34c7.22,0,11.42-7.72,11.39-15.41,0-7.53-4-14.9-11.5-14.87l-19.43.07V79.41Zm-46.71,51.32V34.29s-1.2-9,7.86-9l38.66-.13c25.3.06,38.18,19.6,37.95,39.48-.09,19.29-12.68,38.61-37.68,38.7l-19,.07v21.1s-.32,6.16-6.67,6.19H309.37Z"/><path class="cls-1" d="M480,49H441.69V64h35.38v24.1H441.82l.06,17.18H481.5l.09,25.25H414V33.73s-.81-8.62,9.19-8.62H480Z"/><path class="cls-1" d="M602.71,130.84c-9.82,0-20.12-12.45-34.16-25.45C553.29,91.27,539,76.53,539,76.53v54.38H511.25V25.11c8.3,0,8.85.52,17.66,8.34L575,76.86V25.25h27.7Z"/><path class="cls-1" d="M43.82,25.11c-.25,0-3.69,0,0,0h0"/><path class="cls-1" d="M69.31,49.24A9.28,9.28,0,0,0,78.39,40l0,0V25.12s-67.08,0-72.27,0c-7,0-6.11,6.71-6.11,6.71V49.24H26V130.5l17.82-.07h.06a8.45,8.45,0,0,0,1.54-.16c.26-.05.5-.12.75-.18l.37-.12a9,9,0,0,0,6.37-8.54.18.18,0,0,0,0-.06V49.24h16.4Z"/><path class="cls-2" d="M789.94,159.58s-1.6-36.91,73-49c0,0-59.42,20.07-72.95,79.56Z"/><path class="cls-2" d="M778.61,171.05c0-7.91-9.93-47.91-72.05-55.68,0,0,63.42,26.45,72.19,109.06C778.75,224.43,778.61,182,778.61,171.05Z"/><path class="cls-2" d="M760.64,22.34C774.19,3.39,784.55,0,784.55,0V.11s8.34,5.09,21.88,23.66C814.55,37.2,791.89,54.05,783,69.36c-15-30.63-31.24-32.31-22.36-47"/><path class="cls-2" d="M788.33,111.38s17.36,12.15,34.29-13.62-5.38-55.56-5.38-55.56S791.89,74,785.76,87.13C785.76,87.13,777.32,102.4,788.33,111.38Z"/><path class="cls-2" d="M782.87,116.77c-1.68-2.9-18.06-11.77-10.74-32.09,4.1-11.4-4.44-21.75-24.81-47-17,19.14-15.92,38.75-7.82,55.8,12.59,26.5,35.83,25,38.35,24.89A9.78,9.78,0,0,0,782.87,116.77Z"/><path class="cls-1" d="M966.16,130.84c-9.82,0-20.11-12.45-34.16-25.45-15.26-14.12-29.56-28.86-29.56-28.86v54.38H874.71V25.11c8.29,0,8.84.52,17.65,8.34l46.1,43.41V25.25h27.7Z"/></svg>