<svg width="17" height="21" viewBox="0 0 17 21" xmlns="http://www.w3.org/2000/svg"><title>elementen/tulpenbol oranje</title><g fill="#FF7500" fill-rule="evenodd"><path d="M4.446 3.944C6.838.598 8.666 0 8.666 0v.019s1.472.898 3.862 4.177c1.434 2.37-2.567 5.344-4.135 8.047-2.649-5.406-5.515-5.704-3.947-8.299M9 19.211s3.062 2.146 6.052-2.403c2.99-4.549-.95-9.808-.95-9.808s-4.476 5.606-5.557 7.931c0 0-1.489 2.695.454 4.28"/><path d="M8.658 20.964c-.298-.512-3.19-2.077-1.897-5.664.725-2.013-.784-3.839-4.38-8.3-3 3.38-2.808 6.84-1.38 9.849 2.223 4.679 6.326 4.41 6.77 4.395.528-.018.887-.28.887-.28"/></g></svg>